<svg width="307" height="37" viewBox="0 0 307 37" fill="none" xmlns="http://www.w3.org/2000/svg">
<path d="M0.648 23.096H2.232V14.888H0.648V8.984H2.304C2.304 6.056 3.012 3.908 4.428 2.54C5.868 1.172 7.956 0.487998 10.692 0.487998C12.012 0.487998 13.188 0.583998 14.22 0.775999C15.276 0.967999 16.044 1.184 16.524 1.424V7.076C15.252 6.956 14.076 6.896 12.996 6.896C12.06 6.896 11.412 7.052 11.052 7.364C10.692 7.676 10.512 8.216 10.512 8.984H13.32V14.888H10.512V23.096H13.32V29H0.648V23.096ZM28.0724 29.504C24.6644 29.504 22.0004 28.616 20.0804 26.84C18.1604 25.04 17.2004 22.424 17.2004 18.992C17.2004 15.56 18.1604 12.956 20.0804 11.18C22.0004 9.38 24.6644 8.48 28.0724 8.48C31.5284 8.48 34.2044 9.392 36.1004 11.216C37.9964 13.016 38.9444 15.608 38.9444 18.992C38.9444 22.424 37.9844 25.04 36.0644 26.84C34.1444 28.616 31.4804 29.504 28.0724 29.504ZM28.0724 23.096C28.7684 23.096 29.2844 22.916 29.6204 22.556C29.9804 22.172 30.1604 21.584 30.1604 20.792V17.192C30.1604 16.4 29.9804 15.824 29.6204 15.464C29.2844 15.08 28.7684 14.888 28.0724 14.888C27.3764 14.888 26.8484 15.08 26.4884 15.464C26.1524 15.824 25.9844 16.4 25.9844 17.192V20.792C25.9844 21.584 26.1524 22.172 26.4884 22.556C26.8484 22.916 27.3764 23.096 28.0724 23.096ZM66.6585 23.096V29H56.7945V26.192C55.0665 28.4 52.9065 29.504 50.3145 29.504C48.3225 29.504 46.8225 28.88 45.8145 27.632C44.8305 26.384 44.3385 24.668 44.3385 22.484V14.888H42.7545V8.984H52.6185V20.792C52.6185 21.584 52.7865 22.172 53.1225 22.556C53.4825 22.916 54.0105 23.096 54.7065 23.096C55.4025 23.096 55.9185 22.916 56.2545 22.556C56.6145 22.172 56.7945 21.584 56.7945 20.792V14.888H54.8505V8.984H65.0745V23.096H66.6585ZM85.9022 8.48C86.3822 8.48 86.8382 8.528 87.2702 8.624C87.7022 8.72 88.0622 8.84 88.3502 8.984V15.86C87.3662 15.452 86.3102 15.248 85.1822 15.248C83.6702 15.248 82.5062 15.644 81.6902 16.436C80.8742 17.228 80.4662 18.404 80.4662 19.964V23.096H83.7062V29H70.6022V23.096H72.1862V14.888H70.6022V8.984H80.4662V11.612C81.1382 10.604 81.9062 9.836 82.7702 9.308C83.6342 8.756 84.6782 8.48 85.9022 8.48Z" fill="#48B4F0"/>
<path d="M98.3706 29L93.6186 14.888H92.1066V8.984H103.231V14.888H101.719L103.015 20.504H103.375L106.003 8.984H112.627L115.255 20.504H115.615L116.875 14.888H115.363V8.984H125.803V14.888H124.291L119.719 29H110.971L108.991 18.992H108.631L106.651 29H98.3706ZM150.329 23.096V29H140.825V26.552C140.297 27.32 139.553 28.004 138.593 28.604C137.657 29.204 136.505 29.504 135.137 29.504C133.337 29.504 131.921 29.024 130.889 28.064C129.857 27.104 129.341 25.748 129.341 23.996C129.341 19.46 133.193 17.132 140.897 17.012C140.825 16.196 140.513 15.644 139.961 15.356C139.409 15.044 138.473 14.888 137.153 14.888C136.073 14.888 134.909 15.008 133.661 15.248C132.437 15.464 131.309 15.764 130.277 16.148V9.524C131.549 9.212 132.929 8.96 134.417 8.768C135.905 8.576 137.357 8.48 138.773 8.48C142.349 8.48 144.905 9.128 146.441 10.424C147.977 11.72 148.745 13.724 148.745 16.436V23.096H150.329ZM140.825 20.576C139.745 20.576 138.905 20.72 138.305 21.008C137.729 21.296 137.441 21.776 137.441 22.448C137.441 22.856 137.561 23.192 137.801 23.456C138.065 23.696 138.425 23.816 138.881 23.816C139.505 23.816 139.985 23.552 140.321 23.024C140.657 22.496 140.825 21.752 140.825 20.792V20.576ZM176.041 8.984V14.888H174.673L169.957 27.38C168.781 30.524 167.437 32.876 165.925 34.436C164.413 36.02 162.421 36.812 159.949 36.812C158.941 36.812 157.921 36.704 156.889 36.488C155.857 36.296 154.921 36.02 154.081 35.66V29.144H159.049V29.504C159.049 30.104 159.361 30.404 159.985 30.404C160.537 30.404 160.957 30.14 161.245 29.612L155.557 14.888H154.189V8.984H164.881V14.888H163.657L165.529 20.504L167.257 14.888H166.033V8.984H176.041Z" fill="#FFCC43"/>
<path d="M188.888 29.504C186.344 29.504 184.424 28.892 183.128 27.668C181.856 26.42 181.22 24.332 181.22 21.404V14.888H179.636V8.984C180.548 8.984 181.232 8.756 181.688 8.3C182.144 7.82 182.372 7.172 182.372 6.356V4.736H190.004V8.984H194.864V14.888H190.004V20.792C190.004 21.584 190.172 22.172 190.508 22.556C190.868 22.916 191.396 23.096 192.092 23.096C193.004 23.096 194 22.988 195.08 22.772V28.424C194.408 28.688 193.496 28.928 192.344 29.144C191.216 29.384 190.064 29.504 188.888 29.504ZM214.49 8.48C214.97 8.48 215.426 8.528 215.858 8.624C216.29 8.72 216.65 8.84 216.938 8.984V15.86C215.954 15.452 214.898 15.248 213.77 15.248C212.258 15.248 211.094 15.644 210.278 16.436C209.462 17.228 209.054 18.404 209.054 19.964V23.096H212.294V29H199.19V23.096H200.774V14.888H199.19V8.984H209.054V11.612C209.726 10.604 210.494 9.836 211.358 9.308C212.222 8.756 213.266 8.48 214.49 8.48ZM241.97 23.096V29H232.466V26.552C231.938 27.32 231.194 28.004 230.234 28.604C229.298 29.204 228.146 29.504 226.778 29.504C224.978 29.504 223.562 29.024 222.53 28.064C221.498 27.104 220.982 25.748 220.982 23.996C220.982 19.46 224.834 17.132 232.538 17.012C232.466 16.196 232.154 15.644 231.602 15.356C231.05 15.044 230.114 14.888 228.794 14.888C227.714 14.888 226.55 15.008 225.302 15.248C224.078 15.464 222.95 15.764 221.918 16.148V9.524C223.19 9.212 224.57 8.96 226.058 8.768C227.546 8.576 228.998 8.48 230.414 8.48C233.99 8.48 236.546 9.128 238.082 10.424C239.618 11.72 240.386 13.724 240.386 16.436V23.096H241.97ZM232.466 20.576C231.386 20.576 230.546 20.72 229.946 21.008C229.37 21.296 229.082 21.776 229.082 22.448C229.082 22.856 229.202 23.192 229.442 23.456C229.706 23.696 230.066 23.816 230.522 23.816C231.146 23.816 231.626 23.552 231.962 23.024C232.298 22.496 232.466 21.752 232.466 20.792V20.576ZM250.329 29L245.793 14.888H244.281V8.984H255.405V14.888H253.893L255.801 22.016H256.161L258.069 14.888H256.557V8.984H266.997V14.888H265.485L261.057 29H250.329ZM281.626 29.504C278.218 29.504 275.554 28.616 273.634 26.84C271.714 25.04 270.754 22.424 270.754 18.992C270.754 15.56 271.714 12.956 273.634 11.18C275.554 9.38 278.218 8.48 281.626 8.48C285.01 8.48 287.446 9.368 288.934 11.144C290.446 12.896 291.202 15.08 291.202 17.696V20.288H279.538V20.504C279.538 21.392 279.802 22.052 280.33 22.484C280.858 22.892 281.734 23.096 282.958 23.096C284.422 23.096 285.814 22.988 287.134 22.772C288.454 22.556 289.606 22.28 290.59 21.944V27.704C289.75 28.16 288.514 28.58 286.882 28.964C285.274 29.324 283.522 29.504 281.626 29.504ZM283.714 16.328V15.896C283.714 15.08 283.534 14.492 283.174 14.132C282.838 13.772 282.322 13.592 281.626 13.592C280.93 13.592 280.402 13.784 280.042 14.168C279.706 14.528 279.538 15.104 279.538 15.896V16.328H283.714ZM295.153 29.036V23.096H296.737V6.896H295.153V0.991998H305.017V23.096H306.601V29.036H295.153Z" fill="#FF6D43"/>
</svg>
