<svg width="588" height="168" viewBox="0 0 588 168" fill="none" xmlns="http://www.w3.org/2000/svg">
<path d="M138 -7.15256e-07V51H132C132 33.2 128.4 21.3 121.2 15.3C114.2 9.1 102.8 5.99999 87 5.99999H60V84.6H72C86.4 84.6 95.5 82.8 99.3 79.2C103.1 75.6 105 68.4 105 57.6H111V117.6H105C105 106.4 103.1 99.1 99.3 95.7C95.5 92.3 86.4 90.6 72 90.6H60V162H78V168H8.49366e-07V162H15V5.99999H8.49366e-07V-7.15256e-07H138ZM150.082 5.99999V-7.15256e-07H237.982V5.99999H223.282L264.382 98.7L283.582 51L263.482 5.99999H252.082V-7.15256e-07H334.282V5.99999H320.182L360.382 97.5L392.182 5.99999H368.182V-7.15256e-07H419.782V5.99999H399.382L343.282 168H336.082L337.282 164.7L335.782 168L287.482 59.4L243.982 168H236.782L164.482 5.99999H150.082ZM581.466 51C581.466 33.2 578.466 21.3 572.466 15.3C566.666 9.1 555.666 5.99999 539.466 5.99999H530.466V162H551.466V168H464.466V162H485.466V5.99999H476.466C460.466 5.99999 449.466 9.1 443.466 15.3C437.666 21.3 434.766 33.2 434.766 51H428.766V-7.15256e-07H587.466V51H581.466Z" fill="url(#paint0_linear_169_2)"/>
<defs>
<linearGradient id="paint0_linear_169_2" x1="-12" y1="79.2041" x2="596" y2="79.2041" gradientUnits="userSpaceOnUse">
<stop stop-color="#2563EB"/>
<stop offset="1" stop-color="#FF7A10"/>
</linearGradient>
</defs>
</svg>
